<svg width="140" height="121" viewBox="0 0 140 121" fill="none" xmlns="http://www.w3.org/2000/svg">
<path d="M14.1335 83.2121C14.7595 83.3623 15.6097 84.1386 15.8552 84.847L17.1002 87.8665C17.3813 88.446 17.3279 89.5944 16.9935 90.1454L12.024 98.3166C10.9604 100.07 11.1809 102.552 12.6109 104.162L16.8192 108.391C18.2848 109.7 20.8709 109.937 22.5571 108.91L30.6819 103.912C31.1906 103.597 32.2827 103.486 33.0475 103.847L36.0463 105.092C36.651 105.304 37.4229 106.155 37.5724 106.785L39.8028 116.101C40.2759 118.075 42.1506 119.7 44.164 119.886C44.164 119.886 45.3984 120 47.2481 120C49.0979 120 50.3323 119.886 50.3359 119.886C51.3551 119.765 52.3149 119.34 53.0916 118.665C53.8683 117.99 54.4263 117.097 54.6935 116.101L56.9275 106.785C57.0769 106.159 57.8453 105.304 58.5496 105.057L61.5519 103.805C62.082 103.543 63.3092 103.597 63.8179 103.912L71.9428 108.91C72.6578 109.35 73.5115 109.582 74.4186 109.582C75.6459 109.582 76.834 109.149 77.7553 108.323L81.96 104.091C82.6266 103.299 83.0339 102.32 83.1263 101.288C83.2186 100.255 82.9914 99.2183 82.4758 98.3201L77.5063 90.149C77.1719 89.598 77.1186 88.4496 77.4423 87.7699L78.6802 84.754C78.8901 84.1458 79.7367 83.3695 80.3628 83.2192L89.626 80.9761C90.6169 80.7062 91.5048 80.1442 92.1755 79.3626C92.8463 78.5809 93.2691 77.6153 93.3896 76.59C93.3896 76.59 93.5034 75.3486 93.5034 73.4882C93.5034 71.6279 93.3896 70.3865 93.3896 70.3829C93.2686 69.3577 92.8456 68.3923 92.175 67.6108C91.5043 66.8292 90.6167 66.2671 89.626 65.9968L80.3664 63.7572C79.7403 63.607 78.8901 62.8306 78.6447 62.1223L77.3996 59.1028C77.1186 58.5232 77.1719 57.3748 77.5063 56.8239L82.4758 48.6527C83.5395 46.8997 83.3189 44.4169 81.8889 42.807L77.6806 38.5783C76.2115 37.2653 73.6218 37.0292 71.9428 38.0595L63.8179 43.0574C63.3092 43.3687 62.2136 43.4867 61.4523 43.1218L58.4536 41.8768C57.8488 41.6657 57.0805 40.8143 56.931 40.1846L54.6971 30.8686C54.4287 29.8721 53.87 28.9791 53.0927 28.3045C52.3155 27.63 51.3554 27.2047 50.3359 27.0836C50.3287 27.0871 49.0944 26.9727 47.2446 26.9727C45.3948 26.9727 44.1604 27.0871 44.1569 27.0871C43.1375 27.2088 42.1776 27.6342 41.4005 28.3086C40.6233 28.9831 40.0645 29.8759 39.7957 30.8722L37.5688 40.181C37.4194 40.8107 36.6475 41.6657 35.9431 41.9126L32.9408 43.1647C32.4072 43.4259 31.1835 43.3687 30.6748 43.0574L22.5535 38.0595C20.8709 37.0292 18.3382 37.2081 16.7409 38.6463L12.5362 42.8785C11.8697 43.6698 11.4624 44.6488 11.37 45.6817C11.2777 46.7146 11.5049 47.751 12.0204 48.6492L16.99 56.8203C17.3243 57.3713 17.3777 58.5197 17.054 59.1994L15.8161 62.2153C15.6062 62.8235 14.7595 63.5998 14.1335 63.7501L4.87032 65.9932C3.8794 66.2631 2.99146 66.825 2.32074 67.6067C1.65002 68.3884 1.22721 69.354 1.10672 70.3793C1.11383 70.3793 1 71.6207 1 73.4811C1 75.3414 1.11383 76.5828 1.11383 76.5864C1.23479 77.6116 1.65776 78.5769 2.32841 79.3585C2.99906 80.1401 3.88675 80.7022 4.87743 80.9725L14.1335 83.2121ZM4.55728 73.4811C4.55728 71.8425 4.65332 70.7371 4.65688 70.7013C4.71356 70.4229 4.84004 70.1637 5.02433 69.9483C5.20861 69.7329 5.44458 69.5685 5.70983 69.4706L14.973 67.2275C16.7694 66.791 18.5801 65.1382 19.1421 63.4818L20.2947 60.6662C21.1057 58.9955 20.9919 56.5413 20.0279 54.9528L15.0584 46.7852C14.82 46.3881 14.8876 45.6011 15.1224 45.3327L19.1812 41.2472C19.5049 40.9574 20.3302 40.8858 20.7002 41.1112L28.825 46.1091C30.3653 47.0571 33.0048 47.1215 34.4028 46.4239L37.206 45.2576C38.9526 44.653 40.596 42.832 41.03 41.0218L43.2569 31.7094C43.3534 31.4418 43.5166 31.2035 43.7309 31.0175C43.9451 30.8315 44.2033 30.7038 44.4806 30.6468C44.5162 30.6468 45.6154 30.5502 47.2446 30.5502C48.8738 30.5502 49.973 30.6468 50.0086 30.6504C50.2854 30.7074 50.5431 30.8346 50.7573 31.0199C50.9714 31.2053 51.135 31.4426 51.2323 31.7094L53.4627 41.0218C53.8967 42.8284 55.5366 44.653 57.1872 45.2183L59.9867 46.3774C61.6124 47.1788 64.131 47.0536 65.6677 46.1091L73.789 41.1112C74.1589 40.8858 75.034 41.0039 75.2332 41.1756L79.2956 45.2576C79.6016 45.6046 79.6692 46.3881 79.4308 46.7852L74.4613 54.9564C73.4973 56.5413 73.3834 58.9991 74.1483 60.566L75.3079 63.3852C75.9091 65.1417 77.7198 66.7946 79.5197 67.231L88.7793 69.4706C89.0454 69.5677 89.2823 69.7318 89.4673 69.9473C89.6523 70.1628 89.7792 70.4224 89.8358 70.7013C89.8358 70.7371 89.9319 71.8425 89.9319 73.4811C89.9319 75.1196 89.8358 76.2251 89.8323 76.2608C89.7756 76.5392 89.6491 76.7984 89.4648 77.0138C89.2806 77.2292 89.0446 77.3936 88.7793 77.4915L79.5162 79.7347C77.7198 80.1711 75.9091 81.824 75.3471 83.4804L74.1945 86.2959C73.3834 87.9666 73.4973 90.4209 74.4613 92.0093L79.4308 100.177C79.6692 100.574 79.6016 101.361 79.3668 101.629L75.3079 105.715C75.0508 105.908 74.7359 106.008 74.4151 105.998C74.1983 106.005 73.9836 105.954 73.7925 105.851L65.6677 100.853C64.131 99.9086 61.4915 99.8406 60.0899 100.538L57.2868 101.705C55.5402 102.309 53.8967 104.134 53.4663 105.94L51.2358 115.253C51.1393 115.52 50.9761 115.759 50.7619 115.945C50.5476 116.131 50.2895 116.258 50.0121 116.315C49.973 116.315 48.8738 116.412 47.2446 116.412C45.6154 116.412 44.5162 116.315 44.4806 116.312C44.2038 116.255 43.9461 116.128 43.7319 115.942C43.5177 115.757 43.3542 115.52 43.2569 115.253L41.0265 105.937C40.5925 104.13 38.949 102.309 37.302 101.744L34.5024 100.585C33.7064 100.213 32.8368 100.027 31.959 100.041C30.7886 100.041 29.6752 100.331 28.8215 100.857L20.7002 105.854C20.3302 106.08 19.4516 105.958 19.2559 105.79L15.1935 101.705C14.8876 101.357 14.82 100.574 15.0584 100.177L20.0279 92.0057C20.9919 90.4209 21.1057 87.9631 20.3409 86.3961L19.1812 83.577C18.5801 81.8204 16.7694 80.1675 14.9694 79.7311L5.70983 77.4915C5.44374 77.3944 5.20688 77.2303 5.0219 77.0148C4.83691 76.7994 4.71001 76.5397 4.65332 76.2608C4.65332 76.2251 4.55728 75.1196 4.55728 73.4811Z" fill="black" stroke="black"/>
<path d="M88.6913 36.1895C89.085 36.2835 89.6197 36.7693 89.7741 37.2125L90.5571 39.1018C90.7338 39.4644 90.7003 40.183 90.49 40.5277L87.3646 45.6405C86.6957 46.7374 86.8344 48.2909 87.7338 49.2982L90.3804 51.9442C91.3021 52.7635 92.9285 52.9112 93.9889 52.2688L99.0986 49.1416C99.4186 48.9446 100.105 48.8752 100.586 49.1013L102.472 49.8803C102.853 50.0123 103.338 50.5451 103.432 50.9391L104.835 56.7682C105.132 58.0038 106.311 59.0201 107.578 59.1365C107.578 59.1365 108.354 59.2082 109.517 59.2082C110.681 59.2082 111.457 59.1365 111.459 59.1365C112.1 59.0609 112.704 58.7948 113.192 58.3727C113.681 57.9506 114.031 57.3917 114.2 56.7682L115.605 50.9391C115.698 50.5473 116.182 50.0123 116.625 49.8579L118.513 49.0744C118.846 48.911 119.618 48.9446 119.938 49.1416L125.048 52.2688C125.497 52.5441 126.034 52.6896 126.605 52.6896C127.377 52.6896 128.124 52.4187 128.703 51.9016L131.348 49.2535C131.767 48.7584 132.023 48.1458 132.081 47.4995C132.139 46.8532 131.996 46.2047 131.672 45.6428L128.547 40.53C128.336 40.1852 128.303 39.4667 128.506 39.0414L129.285 37.1543C129.417 36.7737 129.949 36.288 130.343 36.194L136.169 34.7904C136.792 34.6215 137.35 34.2699 137.772 33.7808C138.194 33.2918 138.46 32.6876 138.536 32.046C138.536 32.046 138.607 31.2692 138.607 30.1052C138.607 28.9412 138.536 28.1644 138.536 28.1622C138.46 27.5207 138.194 26.9167 137.772 26.4276C137.35 25.9386 136.792 25.5869 136.169 25.4177L130.345 24.0164C129.952 23.9224 129.417 23.4367 129.262 22.9934L128.479 21.1041C128.303 20.7415 128.336 20.0229 128.547 19.6782L131.672 14.5654C132.341 13.4685 132.202 11.915 131.303 10.9077L128.656 8.26175C127.732 7.44022 126.104 7.29247 125.048 7.93716L119.938 11.0644C119.618 11.2591 118.929 11.333 118.45 11.1047L116.564 10.3257C116.184 10.1936 115.701 9.66082 115.607 9.26684L114.202 3.43775C114.033 2.81418 113.682 2.25542 113.193 1.83335C112.704 1.41128 112.1 1.14522 111.459 1.06939C111.455 1.07163 110.678 1 109.515 1C108.352 1 107.575 1.07163 107.573 1.07163C106.932 1.14775 106.328 1.41392 105.84 1.83594C105.351 2.25796 104.999 2.81657 104.83 3.43998L103.43 9.26461C103.336 9.65859 102.85 10.1936 102.407 10.348L100.519 11.1315C100.184 11.2949 99.4141 11.2591 99.0942 11.0644L93.9867 7.93716C92.9285 7.29247 91.3356 7.4044 90.3311 8.30428L87.6868 10.9524C87.2676 11.4475 87.0114 12.0601 86.9534 12.7064C86.8953 13.3527 87.0382 14.0012 87.3624 14.5632L90.4877 19.676C90.698 20.0207 90.7316 20.7392 90.528 21.1646L89.7495 23.0516C89.6175 23.4322 89.085 23.9179 88.6913 24.012L82.8657 25.4155C82.2425 25.5844 81.6841 25.936 81.2623 26.4251C80.8404 26.9142 80.5745 27.5184 80.4988 28.1599C80.5032 28.1599 80.4316 28.9367 80.4316 30.1007C80.4316 31.2648 80.5032 32.0415 80.5032 32.0438C80.5793 32.6852 80.8453 33.2893 81.2671 33.7783C81.6889 34.2673 82.2471 34.619 82.8702 34.7882L88.6913 36.1895ZM82.6688 30.1007C82.6688 29.0755 82.7292 28.3838 82.7315 28.3614C82.7671 28.1872 82.8466 28.025 82.9625 27.8903C83.0784 27.7555 83.2268 27.6526 83.3937 27.5913L89.2193 26.1878C90.349 25.9147 91.4878 24.8805 91.8412 23.8441L92.5661 22.0824C93.0762 21.037 93.0046 19.5013 92.3983 18.5074L89.273 13.3969C89.1231 13.1484 89.1656 12.656 89.3132 12.4881L91.8658 9.93168C92.0694 9.75036 92.5885 9.70559 92.8211 9.84662L97.9308 12.9738C98.8995 13.567 100.56 13.6073 101.439 13.1708L103.202 12.4411C104.3 12.0628 105.334 10.9233 105.607 9.79066L107.007 3.9638C107.068 3.79635 107.17 3.6473 107.305 3.53089C107.44 3.41449 107.602 3.33463 107.777 3.29896C107.799 3.29896 108.49 3.23852 109.515 3.23852C110.54 3.23852 111.231 3.29896 111.253 3.3012C111.427 3.33686 111.589 3.41646 111.724 3.53242C111.859 3.64839 111.962 3.79688 112.023 3.9638L113.426 9.79066C113.698 10.9211 114.73 12.0628 115.768 12.4164L117.528 13.1417C118.551 13.6431 120.135 13.5648 121.101 12.9738L126.209 9.84662C126.441 9.70559 126.992 9.77947 127.117 9.88691L129.672 12.4411C129.864 12.6582 129.907 13.1484 129.757 13.3969L126.632 18.5097C126.025 19.5013 125.954 21.0392 126.435 22.0197L127.164 23.7836C127.542 24.8827 128.681 25.9169 129.813 26.19L135.636 27.5913C135.804 27.6521 135.953 27.7548 136.069 27.8896C136.185 28.0244 136.265 28.1869 136.301 28.3614C136.301 28.3838 136.361 29.0755 136.361 30.1007C136.361 31.126 136.301 31.8177 136.298 31.8401C136.263 32.0142 136.183 32.1764 136.067 32.3112C135.951 32.446 135.803 32.5489 135.636 32.6101L129.811 34.0137C128.681 34.2868 127.542 35.3209 127.189 36.3574L126.464 38.1191C125.954 39.1645 126.025 40.7001 126.632 41.694L129.757 46.8045C129.907 47.053 129.864 47.5455 129.717 47.7134L127.164 50.2698C127.002 50.3907 126.804 50.4531 126.602 50.4466C126.466 50.4511 126.331 50.4194 126.211 50.3548L121.101 47.2276C120.135 46.6367 118.475 46.5941 117.593 47.0306L115.83 47.7604C114.732 48.1387 113.698 49.2803 113.428 50.4108L112.025 56.2377C111.964 56.4051 111.862 56.5542 111.727 56.6706C111.592 56.787 111.43 56.8668 111.255 56.9025C111.231 56.9025 110.54 56.9629 109.515 56.9629C108.49 56.9629 107.799 56.9025 107.777 56.9003C107.603 56.8646 107.44 56.785 107.306 56.669C107.171 56.5531 107.068 56.4046 107.007 56.2377L105.604 50.4086C105.331 49.2781 104.298 48.1387 103.262 47.785L101.501 47.0597C101.001 46.8268 100.454 46.7105 99.9018 46.7195C99.1658 46.7195 98.4655 46.9008 97.9286 47.2299L92.8211 50.3571C92.5885 50.4981 92.0359 50.422 91.9128 50.3168L89.358 47.7604C89.1656 47.5433 89.1231 47.053 89.273 46.8045L92.3983 41.6918C93.0046 40.7001 93.0762 39.1622 92.5952 38.1818L91.8658 36.4178C91.4878 35.3187 90.349 34.2845 89.217 34.0114L83.3937 32.6101C83.2263 32.5494 83.0774 32.4467 82.961 32.3118C82.8447 32.177 82.7649 32.0146 82.7292 31.8401C82.7292 31.8177 82.6688 31.126 82.6688 30.1007Z" fill="black" stroke="black"/>
<path d="M47.4287 91.6705C56.9892 91.6705 64.7695 84.137 64.7695 74.8797C64.7695 65.6223 56.9892 58.0889 47.4287 58.0889C37.8681 58.0889 30.0879 65.6223 30.0879 74.8797C30.0879 84.137 37.8681 91.6705 47.4287 91.6705ZM47.4287 63.6858C53.8043 63.6858 58.9892 68.7063 58.9892 74.8797C58.9892 81.0531 53.8043 86.0736 47.4287 86.0736C41.053 86.0736 35.8682 81.0531 35.8682 74.8797C35.8682 68.7063 41.053 63.6858 47.4287 63.6858Z" fill="black" stroke="black"/>
<path d="M108.96 41.2979C115.436 41.2979 120.707 36.2756 120.707 30.104C120.707 23.9325 115.436 18.9102 108.96 18.9102C102.483 18.9102 97.2129 23.9325 97.2129 30.104C97.2129 36.2756 102.483 41.2979 108.96 41.2979ZM108.96 22.6414C113.279 22.6414 116.791 25.9884 116.791 30.104C116.791 34.2196 113.279 37.5666 108.96 37.5666C104.641 37.5666 101.129 34.2196 101.129 30.104C101.129 25.9884 104.641 22.6414 108.96 22.6414Z" fill="black" stroke="black"/>
</svg>
