<svg width="91" height="101" viewBox="0 0 91 101" fill="none" xmlns="http://www.w3.org/2000/svg">
<path d="M45.1888 0.369731C43.3259 0.381273 41.8267 2.05928 41.8395 4.11862L41.9966 29.469C42.0093 31.5284 43.5291 33.1877 45.392 33.1761C47.2549 33.1646 48.7541 31.4866 48.7413 29.4272L48.5843 4.07684C48.5715 2.01749 47.0517 0.358189 45.1888 0.369731Z" fill="black"/>
<path d="M45.6068 67.4732C43.7439 67.4848 42.2447 69.1628 42.2575 71.2221L42.4145 96.5725C42.4273 98.6319 43.9471 100.291 45.81 100.28C47.6729 100.268 49.1721 98.5901 49.1593 96.5307L49.0022 71.1804C48.9895 69.121 47.4697 67.4617 45.6068 67.4732Z" fill="black"/>
<path d="M29.9872 50.5978C29.9744 48.5385 28.4546 46.8792 26.5917 46.8907L3.65949 47.0328C1.79659 47.0444 0.297448 48.7224 0.310206 50.7817C0.322965 52.8411 1.84278 54.5004 3.70569 54.4888L26.6379 54.3467C28.5008 54.3352 29.9999 52.6572 29.9872 50.5978Z" fill="black"/>
<path d="M87.2968 46.5148L64.3646 46.6568C62.5017 46.6684 61.0025 48.3464 61.0153 50.4057C61.028 52.4651 62.5479 54.1244 64.4108 54.1128L87.343 53.9708C89.2059 53.9592 90.705 52.2812 90.6922 50.2219C90.6795 48.1625 89.1597 46.5032 87.2968 46.5148Z" fill="black"/>
<path d="M19.0816 14.8471C17.7547 13.3983 15.6206 13.4115 14.3131 14.8766C13.0055 16.3417 13.0188 18.7007 14.3457 20.148L30.6726 37.9732C31.3353 38.6968 32.2009 39.0554 33.0643 39.05C33.9276 39.0447 34.7873 38.6755 35.4424 37.9437C36.7513 36.4786 36.7367 34.1195 35.4098 32.6723L19.0816 14.8471Z" fill="black"/>
<path d="M62.2965 62.0316C60.9695 60.5829 58.8355 60.5961 57.5279 62.0612C56.2204 63.5262 56.2336 65.8853 57.5606 67.3326L73.8874 85.1578C74.5502 85.8814 75.4158 86.2399 76.2791 86.2346C77.1424 86.2292 78.0022 85.86 78.6573 85.1282C79.9662 83.6632 79.9516 81.3041 78.6246 79.8569L62.2965 62.0316Z" fill="black"/>
<path d="M30.8268 63.2805L14.7234 81.3051C13.4145 82.7702 13.4292 85.1293 14.7561 86.5765C15.4189 87.3001 16.2845 87.6587 17.1478 87.6533C18.0112 87.648 18.8709 87.2788 19.526 86.547L35.6294 68.5223C36.9383 67.0572 36.9237 64.6982 35.5967 63.2509C34.2698 61.8037 32.1357 61.8154 30.8268 63.2805Z" fill="black"/>
<path d="M57.384 38.8622C58.0468 39.5858 58.9124 39.9443 59.7757 39.939C60.6391 39.9336 61.4988 39.5644 62.1539 38.8326L78.2586 20.8065C79.5675 19.3414 79.5529 16.9823 78.226 15.5351C76.899 14.0878 74.765 14.0996 73.4574 15.5646L57.3514 33.5908C56.0438 35.0559 56.0584 37.4149 57.384 38.8622Z" fill="black"/>
</svg>
