<svg width="116" height="120" viewBox="0 0 116 120" fill="none" xmlns="http://www.w3.org/2000/svg">
<path d="M57.5278 119.023C25.8053 119.023 0 92.3194 0 59.5116C0 26.7037 25.8053 0 57.5278 0C68.6389 0 79.4131 3.28164 88.6915 9.47934C90.5981 10.7546 91.1405 13.3816 89.9078 15.354C88.6751 17.3094 86.1438 17.9045 84.229 16.6122C76.2901 11.3072 67.0528 8.50165 57.5278 8.50165C30.3336 8.50165 8.21826 31.3796 8.21826 59.5116C8.21826 87.6435 30.3336 110.521 57.5278 110.521C84.7221 110.521 106.837 87.6435 106.837 59.5116C106.837 54.0535 106.007 48.6889 104.38 43.5539C103.673 41.318 104.849 38.9206 107.002 38.1894C109.155 37.4413 111.481 38.674 112.187 40.8929C114.086 46.8951 115.056 53.1523 115.056 59.5116C115.056 92.3194 89.2503 119.023 57.5278 119.023Z" fill="black"/>
<path d="M53.4183 82.4595C53.3854 82.4595 53.3525 82.4595 53.3197 82.4595C52.128 82.4255 51.0185 81.8728 50.2542 80.9292L29.7086 55.4242C28.2622 53.6134 28.5005 50.9353 30.2346 49.4305C31.9851 47.9343 34.5656 48.1808 36.0284 49.9747L53.558 71.7474L104.634 13.3836C106.18 11.6492 108.776 11.5472 110.437 13.12C112.105 14.7098 112.22 17.3963 110.683 19.1307L56.4426 81.0822C55.6619 81.9664 54.577 82.4595 53.4183 82.4595Z" fill="black"/>
</svg>
