<svg width="156" height="105" viewBox="0 0 156 105" fill="none" xmlns="http://www.w3.org/2000/svg">
<path d="M153.227 41.886C152.253 40.2498 142.641 36.0645 142.641 36.0645C144.312 35.1941 145.455 35.0141 145.455 31.4145C145.455 27.4877 145.436 26.1788 142.839 26.1788H134.028C133.992 26.1002 133.953 26.0184 133.918 25.9366C128.23 13.4166 127.467 10.2523 118.985 5.99166C107.606 0.287965 86.2745 0 77.9119 0C69.5494 0 48.2178 0.287965 36.8491 5.99166C28.3567 10.2457 28.5677 12.4349 21.916 25.9366C21.916 25.9726 21.8478 26.0675 21.7861 26.1788H12.9658C10.3883 26.1788 10.3688 27.4877 10.3688 31.4145C10.3688 35.0141 11.5115 35.1941 13.1834 36.0645C13.1834 36.0645 3.8956 40.5771 2.59706 41.886C1.29853 43.1949 0 52.3575 0 68.0648C0 83.772 1.29853 99.4793 1.29853 99.4793H5.17465C5.17465 104.061 5.8434 104.715 7.79119 104.715H33.7618C35.7096 104.715 36.3589 104.061 36.3589 99.4793H119.465C119.465 104.061 120.114 104.715 122.062 104.715H148.682C149.981 104.715 150.63 103.733 150.63 99.4793H154.525C154.525 99.4793 155.824 83.4448 155.824 68.0648C155.824 52.6847 154.201 43.5222 153.227 41.886ZM35.4694 56.5919C29.5569 57.2435 23.6142 57.5777 17.6665 57.5933C11.0375 57.5933 10.8103 58.0219 10.3428 53.8497C10.167 51.94 10.2226 50.0159 10.5084 48.1198L10.7129 47.1218H11.6868C15.5824 47.1218 19.241 47.2886 26.1492 49.3404C29.6628 50.4032 32.9676 52.0704 35.9174 54.2685C37.3328 55.3026 37.6574 56.2843 37.6574 56.2843L35.4694 56.5919ZM115.706 80.1528L114.271 83.772H41.553C41.553 83.772 41.6796 83.5724 39.9299 80.1135C38.6313 77.5546 40.2545 75.9184 42.8224 74.989C47.7957 73.1827 62.3296 68.0648 77.9119 68.0648C93.4943 68.0648 108.317 72.4759 113.135 74.989C114.92 75.9184 117.137 76.5728 115.706 80.1724V80.1528ZM32.275 35.4755C31.2264 35.5365 30.1754 35.5441 29.1261 35.4984C29.9734 33.98 30.4441 32.2882 31.2719 30.5212C33.869 24.9582 36.8394 18.6622 42.1276 16.0083C49.7695 12.1731 65.6084 10.4453 77.9119 10.4453C90.2155 10.4453 106.054 12.16 113.696 16.0083C118.985 18.6622 121.942 24.9614 124.552 30.5212C125.386 32.3046 125.851 34.0095 126.721 35.5377C126.071 35.5737 125.325 35.5377 123.542 35.4755H32.275ZM145.156 53.8366C144.462 57.9205 145.111 57.5933 138.157 57.5933C132.21 57.5777 126.267 57.2435 120.354 56.5919C119.429 56.425 119.166 54.851 119.906 54.2685C122.841 52.046 126.151 50.3764 129.675 49.3404C136.583 47.2886 140.472 47.0138 144.312 47.1512C144.57 47.1611 144.816 47.2669 145.001 47.4481C145.186 47.6294 145.298 47.8733 145.316 48.1329C145.499 50.0377 145.446 51.9582 145.156 53.8497V53.8366Z" fill="black"/>
</svg>
