<svg width="125" height="126" viewBox="0 0 125 126" fill="none" xmlns="http://www.w3.org/2000/svg">
<path d="M27.3795 13.6743C28.5246 13.6743 29.4529 12.714 29.4529 11.5294C29.4529 10.3448 28.5246 9.38452 27.3795 9.38452C26.2344 9.38452 25.3061 10.3448 25.3061 11.5294C25.3061 12.714 26.2344 13.6743 27.3795 13.6743Z" fill="#263238"/>
<path d="M19.0857 13.6743C20.2309 13.6743 21.1592 12.714 21.1592 11.5294C21.1592 10.3448 20.2309 9.38452 19.0857 9.38452C17.9406 9.38452 17.0123 10.3448 17.0123 11.5294C17.0123 12.714 17.9406 13.6743 19.0857 13.6743Z" fill="#263238"/>
<path d="M10.7919 13.6743C11.937 13.6743 12.8653 12.714 12.8653 11.5294C12.8653 10.3448 11.937 9.38452 10.7919 9.38452C9.64681 9.38452 8.71851 10.3448 8.71851 11.5294C8.71851 12.714 9.64681 13.6743 10.7919 13.6743Z" fill="#263238"/>
<path d="M122.757 22.2544H2.4984C1.35388 22.2544 0.424988 21.2935 0.424988 20.1095C0.424988 18.9255 1.35388 17.9646 2.4984 17.9646H122.757C123.901 17.9646 124.83 18.9255 124.83 20.1095C124.83 21.2935 123.901 22.2544 122.757 22.2544Z" fill="#263238"/>
<path d="M2.4984 86.6015C1.35388 86.6015 0.424988 85.6406 0.424988 84.4566V7.23967C0.424988 3.69199 3.21581 0.804932 6.64524 0.804932H118.61C122.039 0.804932 124.83 3.69199 124.83 7.23967V45.8481C124.83 47.0321 123.901 47.993 122.757 47.993C121.612 47.993 120.683 47.0321 120.683 45.8481V7.23967C120.683 6.05997 119.754 5.09476 118.61 5.09476H6.64524C5.50071 5.09476 4.57182 6.05997 4.57182 7.23967V84.4566C4.57182 85.6406 3.64293 86.6015 2.4984 86.6015Z" fill="#263238"/>
<path d="M87.5083 125.21H39.8198C38.6752 125.21 37.7463 124.249 37.7463 123.065C37.7463 121.881 38.6752 120.92 39.8198 120.92H43.9666C47.396 120.92 50.1868 118.033 50.1868 114.485V110.196C50.1868 109.012 51.1157 108.051 52.2603 108.051C53.4048 108.051 54.3337 109.012 54.3337 110.196V114.485C54.3337 116.901 53.5582 119.127 52.2561 120.92H72.9986C71.6965 119.127 70.921 116.901 70.921 114.485V101.616C70.921 100.432 71.8499 99.4709 72.9944 99.4709C74.1389 99.4709 75.0678 100.432 75.0678 101.616V114.485C75.0678 118.033 77.8587 120.92 81.2881 120.92H87.5083C88.6529 120.92 89.5818 121.881 89.5818 123.065C89.5818 124.249 88.6529 125.21 87.5083 125.21Z" fill="#263238"/>
<path d="M72.9946 103.761H6.64524C3.21581 103.761 0.424988 100.874 0.424988 97.3262V84.4567C0.424988 83.2727 1.35388 82.3118 2.4984 82.3118H60.5541C61.6986 82.3118 62.6275 83.2727 62.6275 84.4567C62.6275 85.6407 61.6986 86.6016 60.5541 86.6016H4.57182V97.3262C4.57182 98.5059 5.50071 99.4711 6.64524 99.4711H72.9946C74.1391 99.4711 75.068 100.432 75.068 101.616C75.068 102.8 74.1391 103.761 72.9946 103.761Z" fill="#263238"/>
<path d="M72.9945 52.283H68.8476C67.7031 52.283 66.7742 51.3221 66.7742 50.1381C66.7742 48.9541 67.7031 47.9932 68.8476 47.9932H72.9945C74.139 47.9932 75.0679 48.9541 75.0679 50.1381C75.0679 51.3221 74.139 52.283 72.9945 52.283Z" fill="#263238"/>
<path d="M110.316 35.1233H68.8476C67.7031 35.1233 66.7742 34.1624 66.7742 32.9784C66.7742 31.7944 67.7031 30.8335 68.8476 30.8335H110.316C111.461 30.8335 112.389 31.7944 112.389 32.9784C112.389 34.1624 111.461 35.1233 110.316 35.1233Z" fill="#263238"/>
<path d="M110.316 43.7027H68.8476C67.7031 43.7027 66.7742 42.7417 66.7742 41.5578C66.7742 40.3738 67.7031 39.4128 68.8476 39.4128H110.316C111.461 39.4128 112.389 40.3738 112.389 41.5578C112.389 42.7417 111.461 43.7027 110.316 43.7027Z" fill="#263238"/>
<path d="M27.3795 52.283H14.939C13.7944 52.283 12.8655 51.3221 12.8655 50.1381C12.8655 48.9541 13.7944 47.9932 14.939 47.9932H27.3795C28.524 47.9932 29.4529 48.9541 29.4529 50.1381C29.4529 51.3221 28.524 52.283 27.3795 52.283Z" fill="#263238"/>
<path d="M56.4072 35.1233H14.9389C13.7944 35.1233 12.8655 34.1624 12.8655 32.9784C12.8655 31.7944 13.7944 30.8335 14.9389 30.8335H56.4072C57.5518 30.8335 58.4807 31.7944 58.4807 32.9784C58.4807 34.1624 57.5518 35.1233 56.4072 35.1233Z" fill="#263238"/>
<path d="M56.4073 43.7027H14.939C13.7944 43.7027 12.8655 42.7417 12.8655 41.5578C12.8655 40.3738 13.7944 39.4128 14.939 39.4128H56.4073C57.5518 39.4128 58.4807 40.3738 58.4807 41.5578C58.4807 42.7417 57.5518 43.7027 56.4073 43.7027Z" fill="#263238"/>
<path d="M95.8021 108.051C79.7953 108.051 66.7742 94.5762 66.7742 78.0217C66.7742 61.4673 79.7953 47.9929 95.8021 47.9929C101.409 47.9929 106.845 49.6488 111.527 52.7761C112.489 53.4196 112.763 54.7451 112.141 55.7403C111.519 56.727 110.241 57.0273 109.275 56.3752C105.269 53.6984 100.608 52.2827 95.8021 52.2827C82.0802 52.2827 70.9211 63.8267 70.9211 78.0217C70.9211 92.2168 82.0802 103.761 95.8021 103.761C109.524 103.761 120.683 92.2168 120.683 78.0217C120.683 75.2676 120.264 72.5608 119.443 69.9697C119.087 68.8415 119.68 67.6318 120.766 67.2628C121.852 66.8853 123.026 67.5073 123.383 68.627C124.341 71.6556 124.83 74.8129 124.83 78.0217C124.83 94.5762 111.809 108.051 95.8021 108.051Z" fill="#263238"/>
<path d="M93.7285 89.6008C93.7119 89.6008 93.6953 89.6008 93.6787 89.6008C93.0775 89.5836 92.5176 89.3048 92.132 88.8286L81.7649 75.9591C81.035 75.0454 81.1553 73.6941 82.0303 72.9348C82.9136 72.1798 84.2157 72.3042 84.9538 73.2094L93.799 84.1956L119.572 54.7459C120.351 53.8708 121.662 53.8193 122.499 54.613C123.341 55.4152 123.399 56.7707 122.624 57.6459L95.2545 88.9058C94.8606 89.352 94.3132 89.6008 93.7285 89.6008Z" fill="#263238"/>
</svg>
