<svg width="104" height="100" viewBox="0 0 104 100" fill="none" xmlns="http://www.w3.org/2000/svg">
<path d="M50.8338 2.54004H11.3654C9.27183 2.54004 7.26404 3.37297 5.78369 4.8556C4.30333 6.33824 3.47168 8.34911 3.47168 10.4459V68.422C3.47168 70.5187 4.30333 72.5296 5.78369 74.0122C7.26404 75.4949 9.27183 76.3278 11.3654 76.3278H90.3023C92.3958 76.3278 94.4036 75.4949 95.8839 74.0122C97.3643 72.5296 98.1959 70.5187 98.1959 68.422V55.2456M50.8338 76.3278V97.41M24.5215 97.41H77.1461" stroke="black" stroke-width="5" stroke-linecap="round" stroke-linejoin="round"/>
<path d="M85.0399 28.8922C89.3994 28.8922 92.9336 25.3527 92.9336 20.9864C92.9336 16.6201 89.3994 13.0806 85.0399 13.0806C80.6803 13.0806 77.1462 16.6201 77.1462 20.9864C77.1462 25.3527 80.6803 28.8922 85.0399 28.8922Z" stroke="black" stroke-width="5"/>
<path d="M85.0399 39.4339V28.8928M85.0399 13.0811V2.54004M69.0894 30.2105L78.204 24.9399M91.8759 17.0341L100.99 11.7635M69.0894 11.7635L78.204 17.0341M91.8759 24.9399L100.99 30.2105" stroke="black" stroke-width="5" stroke-linecap="round" stroke-linejoin="round"/>
</svg>
