<svg width="136" height="104" viewBox="0 0 136 104" fill="none" xmlns="http://www.w3.org/2000/svg">
<path d="M12.9156 70.5085C13.4752 70.6428 14.2351 71.3363 14.4545 71.9691L15.5674 74.6665C15.8186 75.1843 15.7709 76.2102 15.472 76.7024L11.03 84.0021C10.0793 85.5681 10.2765 87.7862 11.5547 89.2244L15.3162 93.002C16.6262 94.1718 18.9378 94.3827 20.445 93.4655L27.7073 89.0006C28.162 88.7194 29.1382 88.6203 29.8218 88.9431L32.5023 90.0553C33.0428 90.2439 33.7328 91.0045 33.8663 91.567L35.86 99.8894C36.2829 101.654 37.9586 103.105 39.7583 103.271C39.7583 103.271 40.8616 103.373 42.515 103.373C44.1684 103.373 45.2718 103.271 45.275 103.271C46.186 103.163 47.0439 102.783 47.7382 102.18C48.4324 101.578 48.9311 100.78 49.17 99.8894L51.1669 91.567C51.3004 91.0077 51.9872 90.2439 52.6168 90.0234L55.3004 88.9048C55.7742 88.6714 56.8712 88.7194 57.3259 89.0006L64.5882 93.4655C65.2273 93.8586 65.9904 94.0663 66.8013 94.0663C67.8982 94.0663 68.9602 93.6796 69.7838 92.9413L73.5421 89.1604C74.138 88.4536 74.502 87.579 74.5846 86.6562C74.6671 85.7335 74.464 84.8076 74.0032 84.0053L69.5612 76.7056C69.2623 76.2134 69.2146 75.1875 69.504 74.5803L70.6105 71.886C70.7981 71.3427 71.5548 70.6492 72.1145 70.5149L80.3943 68.511C81.28 68.2699 82.0737 67.7679 82.6732 67.0696C83.2727 66.3713 83.6507 65.5087 83.7584 64.5927C83.7584 64.5927 83.8601 63.4837 83.8601 61.8218C83.8601 60.1599 83.7584 59.0509 83.7584 59.0477C83.6503 58.1318 83.2722 57.2694 82.6727 56.5712C82.0733 55.873 81.2798 55.3709 80.3943 55.1294L72.1176 53.1287C71.558 52.9944 70.7981 52.3009 70.5787 51.6681L69.4658 48.9707C69.2146 48.4529 69.2623 47.427 69.5612 46.9348L74.0032 39.6351C74.9539 38.0691 74.7568 35.8511 73.4785 34.4129L69.717 30.6352C68.4038 29.4622 66.089 29.2513 64.5882 30.1718L57.3259 34.6366C56.8712 34.9146 55.8918 35.0201 55.2114 34.6941L52.5309 33.5819C51.9904 33.3933 51.3036 32.6327 51.17 32.0702L49.1732 23.7478C48.9333 22.8575 48.4339 22.0597 47.7392 21.4571C47.0445 20.8545 46.1863 20.4747 45.275 20.3664C45.2686 20.3696 44.1653 20.2673 42.5118 20.2673C40.8584 20.2673 39.7551 20.3696 39.7519 20.3696C38.8407 20.4783 37.9827 20.8583 37.2881 21.4608C36.5934 22.0634 36.0939 22.8609 35.8536 23.751L33.8632 32.067C33.7296 32.6295 33.0396 33.3933 32.4101 33.6139L29.7264 34.7325C29.2495 34.9658 28.1557 34.9146 27.701 34.6366L20.4418 30.1718C18.9378 29.2513 16.6739 29.4111 15.2463 30.6959L11.4879 34.4768C10.8921 35.1836 10.528 36.0583 10.4455 36.981C10.363 37.9037 10.566 38.8296 11.0269 39.6319L15.4688 46.9316C15.7677 47.4238 15.8154 48.4497 15.5261 49.057L14.4195 51.7512C14.2319 52.2945 13.4752 52.988 12.9156 53.1223L4.63574 55.1262C3.75001 55.3673 2.95633 55.8693 2.35681 56.5676C1.75729 57.2659 1.37936 58.1285 1.27166 59.0445C1.27802 59.0445 1.17627 60.1535 1.17627 61.8154C1.17627 63.4773 1.27802 64.5863 1.27802 64.5895C1.38614 65.5054 1.76421 66.3678 2.36366 67.066C2.96312 67.7642 3.75658 68.2663 4.6421 68.5078L12.9156 70.5085ZM4.35593 61.8154C4.35593 60.3516 4.44178 59.3641 4.44496 59.3321C4.49562 59.0834 4.60868 58.8519 4.7734 58.6595C4.93813 58.467 5.14905 58.3201 5.38614 58.2327L13.666 56.2288C15.2717 55.8389 16.8901 54.3623 17.3925 52.8826L18.4227 50.3673C19.1477 48.8748 19.046 46.6823 18.1843 45.2633L13.7423 37.9668C13.5292 37.6121 13.5897 36.9089 13.7995 36.6692L17.4275 33.0194C17.7169 32.7605 18.4545 32.6966 18.7852 32.8979L26.0476 37.3628C27.4244 38.2097 29.7837 38.2672 31.0333 37.644L33.5388 36.6021C35.1001 36.062 36.5691 34.4352 36.957 32.818L38.9474 24.4988C39.0337 24.2598 39.1796 24.047 39.3711 23.8808C39.5626 23.7146 39.7934 23.6006 40.0412 23.5496C40.073 23.5496 41.0556 23.4633 42.5118 23.4633C43.9681 23.4633 44.9506 23.5496 44.9824 23.5528C45.2299 23.6037 45.4602 23.7174 45.6516 23.883C45.8431 24.0485 45.9892 24.2605 46.0762 24.4988L48.0699 32.818C48.4578 34.432 49.9236 36.062 51.399 36.567L53.9014 37.6025C55.3545 38.3184 57.6057 38.2065 58.9793 37.3628L66.2385 32.8979C66.5691 32.6966 67.3513 32.8021 67.5294 32.9555L71.1606 36.6021C71.434 36.9121 71.4944 37.6121 71.2814 37.9668L66.8394 45.2665C65.9777 46.6823 65.876 48.878 66.5596 50.2778L67.5962 52.7963C68.1335 54.3655 69.752 55.8421 71.3609 56.232L79.6375 58.2327C79.8754 58.3194 80.0871 58.466 80.2524 58.6585C80.4178 58.851 80.5312 59.083 80.5819 59.3321C80.5819 59.3641 80.6677 60.3516 80.6677 61.8154C80.6677 63.2792 80.5819 64.2667 80.5787 64.2987C80.5281 64.5474 80.415 64.7789 80.2503 64.9714C80.0856 65.1638 79.8746 65.3107 79.6375 65.3981L71.3577 67.402C69.752 67.7919 68.1335 69.2685 67.6311 70.7482L66.6009 73.2635C65.876 74.756 65.9777 76.9485 66.8394 78.3675L71.2814 85.664C71.4944 86.0188 71.434 86.7219 71.2242 86.9616L67.5962 90.6114C67.3663 90.7841 67.0849 90.8731 66.7981 90.8639C66.6044 90.8703 66.4124 90.8251 66.2416 90.7329L58.9793 86.268C57.6057 85.4243 55.2464 85.3636 53.9936 85.9868L51.488 87.0287C49.9268 87.5688 48.4578 89.1988 48.0731 90.8128L46.0794 99.132C45.9931 99.371 45.8473 99.5839 45.6557 99.75C45.4642 99.9162 45.2335 100.03 44.9856 100.081C44.9506 100.081 43.9681 100.167 42.5118 100.167C41.0556 100.167 40.073 100.081 40.0412 100.078C39.7938 100.027 39.5635 99.9134 39.372 99.7479C39.1806 99.5823 39.0344 99.3703 38.9474 99.132L36.9538 90.8096C36.5659 89.1956 35.0969 87.5688 33.6247 87.0639L31.1223 86.0284C30.4107 85.6958 29.6334 85.5297 28.8488 85.5426C27.8027 85.5426 26.8075 85.8014 26.0444 86.2712L18.7852 90.7361C18.4545 90.9374 17.6692 90.8288 17.4943 90.6785L13.8631 87.0287C13.5897 86.7187 13.5292 86.0188 13.7423 85.664L18.1843 78.3643C19.046 76.9485 19.1477 74.7528 18.4641 73.353L17.4275 70.8345C16.8901 69.2653 15.2717 67.7887 13.6628 67.3988L5.38614 65.3981C5.14829 65.3114 4.93657 65.1648 4.77123 64.9723C4.60588 64.7798 4.49245 64.5479 4.44178 64.2987C4.44178 64.2667 4.35593 63.2792 4.35593 61.8154V61.8154Z" fill="black" stroke="black"/>
<path d="M42.5119 79.3927C52.1558 79.3927 60.0001 71.5081 60.0001 61.8146C60.0001 52.1211 52.1558 44.2366 42.5119 44.2366C32.868 44.2366 25.0238 52.1211 25.0238 61.8146C25.0238 71.5081 32.868 79.3927 42.5119 79.3927ZM42.5119 47.4326C50.4007 47.4326 56.8204 53.8853 56.8204 61.8146C56.8204 69.7439 50.4007 76.1967 42.5119 76.1967C34.6232 76.1967 28.2035 69.7439 28.2035 61.8146C28.2035 53.8853 34.6232 47.4326 42.5119 47.4326ZM88.5438 18.0741C88.3303 18.3149 88.0383 18.4713 87.7203 18.5151L81.803 18.4576C81.0727 18.4771 80.3647 18.7141 79.7686 19.1385C79.1725 19.563 78.7153 20.1558 78.4548 20.8418C78.4548 20.8418 78.1941 21.5865 77.9079 22.7275C77.6217 23.8684 77.5009 24.6483 77.5009 24.6483C77.2783 26.0897 78.0764 27.6845 79.3578 28.3588L84.5756 31.1074C84.8553 31.3204 85.044 31.6323 85.1035 31.9799L85.3992 34.0094C85.4179 34.33 85.3233 34.647 85.1321 34.9043L80.9286 39.0463C79.8761 40.0818 79.5995 41.8524 80.3244 43.2426L82.229 46.4386C83.0335 47.6276 84.776 48.2348 86.1432 47.8065L91.9429 46.0232C92.2577 46.0232 92.5725 46.1446 92.7505 46.2884L94.3881 47.5029C94.6264 47.7186 94.7817 48.0116 94.8269 48.3307L94.7696 54.2497C94.7569 55.7071 95.7744 57.1676 97.1416 57.647C97.1416 57.647 97.8825 57.9091 99.0176 58.1967C100.153 58.4844 100.929 58.6058 100.929 58.6058C101.011 58.6186 101.342 58.6442 101.425 58.6442C102.077 58.636 102.715 58.4557 103.276 58.1214C103.837 57.7871 104.3 57.3105 104.62 56.7394L107.355 51.4947C107.567 51.2136 107.877 51.024 108.223 50.9642L110.331 50.6574C110.649 50.6574 111.024 50.8236 111.129 50.9322L115.25 55.1573C116.251 56.1865 117.94 56.554 119.425 55.7646L122.601 53.8502C123.816 53.0192 124.404 51.3253 123.965 49.9159L122.21 44.2686C122.163 43.9175 122.252 43.5618 122.458 43.2746L123.666 41.6287C123.88 41.3878 124.172 41.2314 124.49 41.1876L130.407 41.2451C131.137 41.2257 131.846 40.9887 132.442 40.5642C133.038 40.1397 133.495 39.5469 133.755 38.8609C133.755 38.8609 134.016 38.1162 134.302 36.9753C134.588 35.8343 134.709 35.0545 134.709 35.0545C134.804 34.3203 134.677 33.5746 134.346 32.9133C134.015 32.252 133.495 31.7054 132.852 31.3439L127.635 28.5953C127.355 28.3823 127.166 28.0704 127.107 27.7228L126.814 25.6998C126.795 25.3791 126.89 25.0622 127.081 24.8049L131.285 20.6629C132.337 19.6273 132.614 17.8568 131.889 16.4665L129.984 13.2705C129.18 12.0848 127.441 11.4711 126.07 11.8994L120.267 13.6828C119.977 13.6824 119.694 13.5895 119.46 13.4175L117.822 12.203C117.584 11.9874 117.429 11.6944 117.383 11.3753L117.441 5.45625C117.428 4.71653 117.196 3.99748 116.773 3.3919C116.35 2.78633 115.756 2.32202 115.069 2.0589C115.069 2.0589 114.328 1.79683 113.193 1.50919C112.057 1.22155 111.282 1.1001 111.282 1.1001C111.117 1.08361 110.951 1.07189 110.786 1.06494C110.134 1.0731 109.495 1.25338 108.934 1.58769C108.373 1.92201 107.91 2.39862 107.59 2.96976L104.855 8.21441C104.644 8.49553 104.333 8.68518 103.987 8.74494L101.879 9.04856C101.591 9.0423 101.313 8.94625 101.081 8.77371L96.9604 4.54859C96.4218 4.00993 95.7249 3.66 94.9729 3.55062C94.221 3.44125 93.4539 3.57826 92.7855 3.94135L89.6059 5.85256C88.3912 6.68352 87.803 8.3774 88.2418 9.78684L89.997 15.4342C90.0439 15.7852 89.9551 16.1409 89.7489 16.4281L88.5438 18.0741V18.0741ZM91.1512 19.9022L92.2418 18.4129C93.0939 17.3997 93.4246 15.7474 93.0303 14.485L91.2784 8.84082C91.2625 8.75134 91.3324 8.54999 91.3165 8.54679L94.3308 6.73146L94.6901 6.78579L98.8141 11.0109C99.5455 11.7588 100.751 12.2446 101.883 12.2446C102.1 12.248 102.318 12.2277 102.531 12.1838L104.359 11.9122C105.046 11.8285 105.704 11.5842 106.28 11.1991C106.856 10.8139 107.334 10.2985 107.676 9.69416L110.407 4.45271C110.506 4.34187 110.642 4.27227 110.789 4.25775C110.824 4.26095 111.472 4.36961 112.42 4.60612C113.364 4.84582 113.987 5.05995 114.016 5.07273C114.115 5.11428 114.258 5.32202 114.264 5.42429L114.207 11.3433C114.194 12.6664 114.986 14.1526 116.01 14.8237L117.488 15.92C118.471 16.7541 120.156 17.1057 121.396 16.7126L127.037 14.9484C127.17 14.9484 127.32 15.0315 127.301 14.9899L129.107 18.0198C129.142 18.1028 129.107 18.3138 129.053 18.3809L124.849 22.5261C123.911 23.4562 123.425 25.0669 123.682 26.2623L123.949 28.1C124.064 29.4167 124.992 30.8198 126.159 31.4334L131.374 34.1788C131.483 34.2783 131.552 34.4148 131.568 34.5623C131.475 35.1133 131.359 35.6603 131.221 36.2018C131.089 36.7431 130.934 37.2783 130.757 37.8062C130.716 37.9053 130.509 38.0491 130.407 38.0555L124.487 37.998C123.18 37.998 121.717 38.7938 121.056 39.8101L119.968 41.2963C119.539 41.8426 119.244 42.483 119.107 43.1655C118.97 43.8479 118.995 44.5532 119.18 45.2242L120.932 50.8683C120.948 50.9546 120.878 51.1591 120.894 51.1623L117.879 52.9777L117.52 52.9233L113.396 48.6982C112.665 47.9504 111.46 47.4646 110.328 47.4646C110.11 47.4611 109.892 47.4815 109.679 47.5253L107.851 47.7969C107.164 47.8807 106.506 48.1249 105.93 48.5101C105.355 48.8952 104.876 49.4106 104.534 50.015L101.803 55.2564C101.705 55.3673 101.568 55.4369 101.421 55.4514C100.873 55.3577 100.329 55.2415 99.7903 55.103C99.2518 54.9705 98.7193 54.8148 98.1941 54.6364C98.0955 54.5948 97.9525 54.3871 97.9461 54.2848L98.0033 48.3658C98.0161 47.0427 97.2243 45.5565 96.2005 44.8854L94.7219 43.7892C94.1779 43.3574 93.5402 43.0606 92.8607 42.9229C92.1812 42.7852 91.4789 42.8104 90.8109 42.9965L85.1702 44.7607C85.0335 44.7607 84.8841 44.6872 84.9063 44.7192L83.1003 41.6894C83.0653 41.6063 83.1003 41.3953 83.1543 41.3282L87.3578 37.183C88.2958 36.253 88.7823 34.6422 88.5248 33.4469L88.2577 31.6124C88.1743 30.9218 87.9309 30.2604 87.5471 29.6815C87.1633 29.1026 86.6498 28.6222 86.0478 28.2789L80.8332 25.5336C80.7239 25.434 80.6548 25.2975 80.6392 25.15C80.6424 25.1149 80.7505 24.4629 80.9858 23.5105C81.2243 22.5613 81.4373 21.9349 81.45 21.9061C81.4914 21.807 81.698 21.6632 81.7998 21.6568L87.7203 21.7143C89.0272 21.7143 90.4898 20.9185 91.1512 19.9022V19.9022Z" fill="black" stroke="black"/>
<path d="M106.105 39.4434C111.364 39.4434 115.644 35.1415 115.644 29.8554C115.644 24.5692 111.364 20.2673 106.105 20.2673C100.846 20.2673 96.566 24.5692 96.566 29.8554C96.566 35.1415 100.846 39.4434 106.105 39.4434ZM106.105 23.4633C109.612 23.4633 112.464 26.3302 112.464 29.8554C112.464 33.3805 109.612 36.2474 106.105 36.2474C102.598 36.2474 99.7456 33.3805 99.7456 29.8554C99.7456 26.3302 102.598 23.4633 106.105 23.4633Z" fill="black" stroke="black"/>
</svg>
