<svg width="35" height="35" viewBox="0 0 35 35" fill="none" xmlns="http://www.w3.org/2000/svg">
<path d="M17.5 12.1154C16.9676 12.1154 16.447 11.9575 16.0043 11.6617C15.5615 11.3658 15.2165 10.9453 15.0127 10.4534C14.8089 9.96143 14.7556 9.4201 14.8595 8.89784C14.9634 8.37558 15.2198 7.89586 15.5963 7.51933C15.9728 7.14281 16.4525 6.88639 16.9748 6.78251C17.4971 6.67862 18.0384 6.73194 18.5303 6.93571C19.0223 7.13949 19.4428 7.48457 19.7386 7.92732C20.0345 8.37006 20.1924 8.89059 20.1924 9.42308C20.1924 10.1371 19.9087 10.8219 19.4038 11.3268C18.8989 11.8317 18.2141 12.1154 17.5 12.1154Z" fill="black"/>
<path d="M17.5 35C14.0388 35 10.6554 33.9736 7.77753 32.0507C4.89967 30.1278 2.65665 27.3947 1.33212 24.197C0.00758248 20.9993 -0.338976 17.4806 0.336265 14.0859C1.01151 10.6913 2.67822 7.57306 5.12564 5.12564C7.57306 2.67822 10.6913 1.01151 14.0859 0.336265C17.4806 -0.338976 20.9993 0.00758248 24.197 1.33212C27.3947 2.65665 30.1278 4.89967 32.0507 7.77753C33.9736 10.6554 35 14.0388 35 17.5C35 22.1413 33.1563 26.5925 29.8744 29.8744C26.5925 33.1563 22.1413 35 17.5 35ZM17.5 2.69231C14.5713 2.69231 11.7084 3.56077 9.27329 5.18786C6.83818 6.81495 4.94024 9.12759 3.81948 11.8333C2.69872 14.5391 2.40548 17.5164 2.97684 20.3888C3.5482 23.2613 4.95849 25.8997 7.02939 27.9706C9.10028 30.0415 11.7388 31.4518 14.6112 32.0232C17.4836 32.5945 20.4609 32.3013 23.1667 31.1805C25.8724 30.0598 28.1851 28.1618 29.8121 25.7267C31.4392 23.2916 32.3077 20.4287 32.3077 17.5C32.3077 13.5728 30.7476 9.80637 27.9706 7.02939C25.1936 4.25241 21.4272 2.69231 17.5 2.69231Z" fill="black"/>
<path d="M17.5 28.2692C16.786 28.2692 16.1012 27.9856 15.5963 27.4807C15.0914 26.9757 14.8077 26.291 14.8077 25.5769V17.5C14.8077 16.7859 15.0914 16.1011 15.5963 15.5962C16.1012 15.0913 16.786 14.8077 17.5 14.8077C18.2141 14.8077 18.8989 15.0913 19.4038 15.5962C19.9087 16.1011 20.1924 16.7859 20.1924 17.5V25.5769C20.1924 26.291 19.9087 26.9757 19.4038 27.4807C18.8989 27.9856 18.2141 28.2692 17.5 28.2692Z" fill="black"/>
</svg>
